<mxfile host="Electron" agent="Mozilla/5.0 (Windows NT 10.0; Win64; x64) AppleWebKit/537.36 (KHTML, like Gecko) draw.io/24.7.17 Chrome/128.0.6613.36 Electron/32.0.1 Safari/537.36" version="24.7.17">
  <diagram id="C5RBs43oDa-KdzZeNtuy" name="Page-1">
    <mxGraphModel dx="1008" dy="592" grid="1" gridSize="10" guides="1" tooltips="1" connect="1" arrows="1" fold="1" page="1" pageScale="1" pageWidth="827" pageHeight="1169" math="0" shadow="0">
      <root>
        <mxCell id="WIyWlLk6GJQsqaUBKTNV-0" />
        <mxCell id="WIyWlLk6GJQsqaUBKTNV-1" parent="WIyWlLk6GJQsqaUBKTNV-0" />
        <mxCell id="HMqZsPV34fV0zxUTWI45-2" value="" style="edgeStyle=orthogonalEdgeStyle;rounded=0;orthogonalLoop=1;jettySize=auto;html=1;" parent="WIyWlLk6GJQsqaUBKTNV-1" source="HMqZsPV34fV0zxUTWI45-0" target="HMqZsPV34fV0zxUTWI45-1" edge="1">
          <mxGeometry relative="1" as="geometry" />
        </mxCell>
        <mxCell id="HMqZsPV34fV0zxUTWI45-0" value="start" style="ellipse;whiteSpace=wrap;html=1;" parent="WIyWlLk6GJQsqaUBKTNV-1" vertex="1">
          <mxGeometry x="354" y="10" width="120" height="40" as="geometry" />
        </mxCell>
        <mxCell id="HMqZsPV34fV0zxUTWI45-4" value="" style="edgeStyle=orthogonalEdgeStyle;rounded=0;orthogonalLoop=1;jettySize=auto;html=1;" parent="WIyWlLk6GJQsqaUBKTNV-1" source="HMqZsPV34fV0zxUTWI45-1" target="HMqZsPV34fV0zxUTWI45-3" edge="1">
          <mxGeometry relative="1" as="geometry" />
        </mxCell>
        <mxCell id="HMqZsPV34fV0zxUTWI45-1" value="init variables" style="whiteSpace=wrap;html=1;" parent="WIyWlLk6GJQsqaUBKTNV-1" vertex="1">
          <mxGeometry x="354" y="70" width="120" height="30" as="geometry" />
        </mxCell>
        <mxCell id="HMqZsPV34fV0zxUTWI45-6" value="" style="edgeStyle=orthogonalEdgeStyle;rounded=0;orthogonalLoop=1;jettySize=auto;html=1;" parent="WIyWlLk6GJQsqaUBKTNV-1" source="HMqZsPV34fV0zxUTWI45-3" target="HMqZsPV34fV0zxUTWI45-5" edge="1">
          <mxGeometry relative="1" as="geometry" />
        </mxCell>
        <mxCell id="HMqZsPV34fV0zxUTWI45-3" value="input variables&amp;nbsp;&lt;div&gt;n&amp;nbsp;&lt;span style=&quot;background-color: initial;&quot;&gt;and m&lt;/span&gt;&lt;/div&gt;" style="shape=parallelogram;perimeter=parallelogramPerimeter;whiteSpace=wrap;html=1;fixedSize=1;" parent="WIyWlLk6GJQsqaUBKTNV-1" vertex="1">
          <mxGeometry x="354" y="120" width="120" height="40" as="geometry" />
        </mxCell>
        <mxCell id="HMqZsPV34fV0zxUTWI45-8" value="" style="edgeStyle=orthogonalEdgeStyle;rounded=0;orthogonalLoop=1;jettySize=auto;html=1;" parent="WIyWlLk6GJQsqaUBKTNV-1" source="HMqZsPV34fV0zxUTWI45-5" target="HMqZsPV34fV0zxUTWI45-7" edge="1">
          <mxGeometry relative="1" as="geometry" />
        </mxCell>
        <mxCell id="HMqZsPV34fV0zxUTWI45-5" value="op1 = m + (--n)" style="whiteSpace=wrap;html=1;" parent="WIyWlLk6GJQsqaUBKTNV-1" vertex="1">
          <mxGeometry x="354" y="180" width="120" height="40" as="geometry" />
        </mxCell>
        <mxCell id="HMqZsPV34fV0zxUTWI45-10" value="" style="edgeStyle=orthogonalEdgeStyle;rounded=0;orthogonalLoop=1;jettySize=auto;html=1;" parent="WIyWlLk6GJQsqaUBKTNV-1" source="HMqZsPV34fV0zxUTWI45-7" target="HMqZsPV34fV0zxUTWI45-9" edge="1">
          <mxGeometry relative="1" as="geometry" />
        </mxCell>
        <mxCell id="HMqZsPV34fV0zxUTWI45-7" value="output result of&amp;nbsp;&lt;div&gt;op1&lt;/div&gt;" style="shape=parallelogram;perimeter=parallelogramPerimeter;whiteSpace=wrap;html=1;fixedSize=1;" parent="WIyWlLk6GJQsqaUBKTNV-1" vertex="1">
          <mxGeometry x="354" y="240" width="120" height="30" as="geometry" />
        </mxCell>
        <mxCell id="HMqZsPV34fV0zxUTWI45-12" value="" style="edgeStyle=orthogonalEdgeStyle;rounded=0;orthogonalLoop=1;jettySize=auto;html=1;" parent="WIyWlLk6GJQsqaUBKTNV-1" source="HMqZsPV34fV0zxUTWI45-9" target="HMqZsPV34fV0zxUTWI45-11" edge="1">
          <mxGeometry relative="1" as="geometry" />
        </mxCell>
        <mxCell id="HMqZsPV34fV0zxUTWI45-16" value="" style="edgeStyle=orthogonalEdgeStyle;rounded=0;orthogonalLoop=1;jettySize=auto;html=1;" parent="WIyWlLk6GJQsqaUBKTNV-1" source="HMqZsPV34fV0zxUTWI45-9" target="HMqZsPV34fV0zxUTWI45-15" edge="1">
          <mxGeometry relative="1" as="geometry" />
        </mxCell>
        <mxCell id="HMqZsPV34fV0zxUTWI45-9" value="if (m++)&amp;nbsp;&lt;div&gt;&amp;lt; (++n)&lt;/div&gt;" style="rhombus;whiteSpace=wrap;html=1;" parent="WIyWlLk6GJQsqaUBKTNV-1" vertex="1">
          <mxGeometry x="374" y="290" width="80" height="50" as="geometry" />
        </mxCell>
        <mxCell id="HMqZsPV34fV0zxUTWI45-14" value="" style="edgeStyle=orthogonalEdgeStyle;rounded=0;orthogonalLoop=1;jettySize=auto;html=1;" parent="WIyWlLk6GJQsqaUBKTNV-1" source="HMqZsPV34fV0zxUTWI45-11" target="HMqZsPV34fV0zxUTWI45-13" edge="1">
          <mxGeometry relative="1" as="geometry" />
        </mxCell>
        <mxCell id="HMqZsPV34fV0zxUTWI45-11" value="op2 = 1" style="whiteSpace=wrap;html=1;" parent="WIyWlLk6GJQsqaUBKTNV-1" vertex="1">
          <mxGeometry x="514" y="300" width="86" height="30" as="geometry" />
        </mxCell>
        <mxCell id="HMqZsPV34fV0zxUTWI45-32" style="edgeStyle=orthogonalEdgeStyle;rounded=0;orthogonalLoop=1;jettySize=auto;html=1;exitX=0;exitY=0.5;exitDx=0;exitDy=0;" parent="WIyWlLk6GJQsqaUBKTNV-1" source="HMqZsPV34fV0zxUTWI45-13" target="HMqZsPV34fV0zxUTWI45-19" edge="1">
          <mxGeometry relative="1" as="geometry" />
        </mxCell>
        <mxCell id="HMqZsPV34fV0zxUTWI45-13" value="output op2 = true" style="shape=parallelogram;perimeter=parallelogramPerimeter;whiteSpace=wrap;html=1;fixedSize=1;" parent="WIyWlLk6GJQsqaUBKTNV-1" vertex="1">
          <mxGeometry x="497" y="350" width="120" height="30" as="geometry" />
        </mxCell>
        <mxCell id="HMqZsPV34fV0zxUTWI45-18" value="" style="edgeStyle=orthogonalEdgeStyle;rounded=0;orthogonalLoop=1;jettySize=auto;html=1;" parent="WIyWlLk6GJQsqaUBKTNV-1" source="HMqZsPV34fV0zxUTWI45-15" target="HMqZsPV34fV0zxUTWI45-17" edge="1">
          <mxGeometry relative="1" as="geometry" />
        </mxCell>
        <mxCell id="HMqZsPV34fV0zxUTWI45-15" value="op2 = 0" style="whiteSpace=wrap;html=1;" parent="WIyWlLk6GJQsqaUBKTNV-1" vertex="1">
          <mxGeometry x="220" y="300" width="94" height="30" as="geometry" />
        </mxCell>
        <mxCell id="HMqZsPV34fV0zxUTWI45-20" value="" style="edgeStyle=orthogonalEdgeStyle;rounded=0;orthogonalLoop=1;jettySize=auto;html=1;" parent="WIyWlLk6GJQsqaUBKTNV-1" source="HMqZsPV34fV0zxUTWI45-17" target="HMqZsPV34fV0zxUTWI45-19" edge="1">
          <mxGeometry relative="1" as="geometry" />
        </mxCell>
        <mxCell id="HMqZsPV34fV0zxUTWI45-17" value="output op2 = false" style="shape=parallelogram;perimeter=parallelogramPerimeter;whiteSpace=wrap;html=1;fixedSize=1;" parent="WIyWlLk6GJQsqaUBKTNV-1" vertex="1">
          <mxGeometry x="207" y="350" width="120" height="30" as="geometry" />
        </mxCell>
        <mxCell id="HMqZsPV34fV0zxUTWI45-23" value="" style="edgeStyle=orthogonalEdgeStyle;rounded=0;orthogonalLoop=1;jettySize=auto;html=1;" parent="WIyWlLk6GJQsqaUBKTNV-1" source="HMqZsPV34fV0zxUTWI45-19" target="HMqZsPV34fV0zxUTWI45-22" edge="1">
          <mxGeometry relative="1" as="geometry" />
        </mxCell>
        <mxCell id="HMqZsPV34fV0zxUTWI45-25" value="" style="edgeStyle=orthogonalEdgeStyle;rounded=0;orthogonalLoop=1;jettySize=auto;html=1;" parent="WIyWlLk6GJQsqaUBKTNV-1" source="HMqZsPV34fV0zxUTWI45-19" target="HMqZsPV34fV0zxUTWI45-24" edge="1">
          <mxGeometry relative="1" as="geometry" />
        </mxCell>
        <mxCell id="HMqZsPV34fV0zxUTWI45-19" value="if (n--) &amp;lt;&amp;nbsp;&lt;div&gt;(--m)&lt;/div&gt;" style="rhombus;whiteSpace=wrap;html=1;" parent="WIyWlLk6GJQsqaUBKTNV-1" vertex="1">
          <mxGeometry x="374" y="390" width="80" height="60" as="geometry" />
        </mxCell>
        <mxCell id="HMqZsPV34fV0zxUTWI45-27" value="" style="edgeStyle=orthogonalEdgeStyle;rounded=0;orthogonalLoop=1;jettySize=auto;html=1;" parent="WIyWlLk6GJQsqaUBKTNV-1" source="HMqZsPV34fV0zxUTWI45-22" target="HMqZsPV34fV0zxUTWI45-26" edge="1">
          <mxGeometry relative="1" as="geometry" />
        </mxCell>
        <mxCell id="HMqZsPV34fV0zxUTWI45-22" value="op3 = 1" style="whiteSpace=wrap;html=1;" parent="WIyWlLk6GJQsqaUBKTNV-1" vertex="1">
          <mxGeometry x="514" y="400" width="86" height="40" as="geometry" />
        </mxCell>
        <mxCell id="HMqZsPV34fV0zxUTWI45-29" value="" style="edgeStyle=orthogonalEdgeStyle;rounded=0;orthogonalLoop=1;jettySize=auto;html=1;" parent="WIyWlLk6GJQsqaUBKTNV-1" source="HMqZsPV34fV0zxUTWI45-24" target="HMqZsPV34fV0zxUTWI45-28" edge="1">
          <mxGeometry relative="1" as="geometry" />
        </mxCell>
        <mxCell id="HMqZsPV34fV0zxUTWI45-24" value="op3 = 0" style="whiteSpace=wrap;html=1;" parent="WIyWlLk6GJQsqaUBKTNV-1" vertex="1">
          <mxGeometry x="220" y="400" width="94" height="40" as="geometry" />
        </mxCell>
        <mxCell id="HMqZsPV34fV0zxUTWI45-30" style="edgeStyle=orthogonalEdgeStyle;rounded=0;orthogonalLoop=1;jettySize=auto;html=1;exitX=0.5;exitY=1;exitDx=0;exitDy=0;" parent="WIyWlLk6GJQsqaUBKTNV-1" source="HMqZsPV34fV0zxUTWI45-26" edge="1">
          <mxGeometry relative="1" as="geometry">
            <mxPoint x="420" y="530" as="targetPoint" />
          </mxGeometry>
        </mxCell>
        <mxCell id="HMqZsPV34fV0zxUTWI45-26" value="output op3 = true" style="shape=parallelogram;perimeter=parallelogramPerimeter;whiteSpace=wrap;html=1;fixedSize=1;" parent="WIyWlLk6GJQsqaUBKTNV-1" vertex="1">
          <mxGeometry x="497" y="460" width="120" height="30" as="geometry" />
        </mxCell>
        <mxCell id="HMqZsPV34fV0zxUTWI45-31" style="edgeStyle=orthogonalEdgeStyle;rounded=0;orthogonalLoop=1;jettySize=auto;html=1;exitX=0.5;exitY=1;exitDx=0;exitDy=0;" parent="WIyWlLk6GJQsqaUBKTNV-1" source="HMqZsPV34fV0zxUTWI45-28" edge="1">
          <mxGeometry relative="1" as="geometry">
            <mxPoint x="420" y="530" as="targetPoint" />
          </mxGeometry>
        </mxCell>
        <mxCell id="HMqZsPV34fV0zxUTWI45-28" value="output op3 = false" style="shape=parallelogram;perimeter=parallelogramPerimeter;whiteSpace=wrap;html=1;fixedSize=1;" parent="WIyWlLk6GJQsqaUBKTNV-1" vertex="1">
          <mxGeometry x="207" y="460" width="120" height="30" as="geometry" />
        </mxCell>
        <mxCell id="HMqZsPV34fV0zxUTWI45-33" value="finish" style="ellipse;whiteSpace=wrap;html=1;" parent="WIyWlLk6GJQsqaUBKTNV-1" vertex="1">
          <mxGeometry x="360" y="530" width="120" height="50" as="geometry" />
        </mxCell>
        <mxCell id="xI6MQlEZKb5eav8ruoO8-0" value="+" style="text;html=1;align=center;verticalAlign=middle;whiteSpace=wrap;rounded=0;" vertex="1" parent="WIyWlLk6GJQsqaUBKTNV-1">
          <mxGeometry x="450" y="290" width="60" height="30" as="geometry" />
        </mxCell>
        <mxCell id="xI6MQlEZKb5eav8ruoO8-1" value="-" style="text;html=1;align=center;verticalAlign=middle;whiteSpace=wrap;rounded=0;" vertex="1" parent="WIyWlLk6GJQsqaUBKTNV-1">
          <mxGeometry x="314" y="290" width="60" height="30" as="geometry" />
        </mxCell>
        <mxCell id="xI6MQlEZKb5eav8ruoO8-2" value="+" style="text;html=1;align=center;verticalAlign=middle;whiteSpace=wrap;rounded=0;" vertex="1" parent="WIyWlLk6GJQsqaUBKTNV-1">
          <mxGeometry x="450" y="390" width="60" height="30" as="geometry" />
        </mxCell>
        <mxCell id="xI6MQlEZKb5eav8ruoO8-3" value="-" style="text;html=1;align=center;verticalAlign=middle;whiteSpace=wrap;rounded=0;" vertex="1" parent="WIyWlLk6GJQsqaUBKTNV-1">
          <mxGeometry x="314" y="390" width="60" height="30" as="geometry" />
        </mxCell>
      </root>
    </mxGraphModel>
  </diagram>
</mxfile>
